<?xml version="1.0" encoding="UTF-8"?><svg xmlns="http://www.w3.org/2000/svg" viewBox="0 0 216 111.46"><defs><style>.st0{fill:#45bac5}.st1{fill:#6d6e71}</style></defs><path class="st0" d="M42.6 9.1C39.97 5.93 36.54 3.81 32.41 2.8 29.55 2.09 24.25 1.74 16.21 1.74H1.46v70.88h8.88V40.58h3.94c8.73 0 14.55-.38 17.79-1.15 4.48-1.08 8.06-3.21 10.63-6.35 2.58-3.15 3.89-7.18 3.89-11.99S45.24 12.28 42.6 9.1ZM37.47 21.12c0 2.16-.58 4.14-1.72 5.89-1.13 1.73-2.71 3-4.7 3.78-2.06.81-5.43 1.22-10 1.22l-10.71-.13V10.47h11.22c4.51 0 7.78.39 9.71 1.15 1.85.73 3.36 1.98 4.49 3.71 1.14 1.74 1.72 3.69 1.72 5.79Z"/><polygon class="st0" points="125.59 1.74 123.01 1.74 95.82 57.04 68.36 1.74 65.77 1.74 55.59 72.63 64.27 72.63 70.73 25.3 94.29 72.63 97.28 72.63 120.54 25.68 127.05 72.63 135.82 72.63"/><path class="st0" d="M182.91 74.36c6.47 0 12.41-1.24 17.67-3.68 5.27-2.44 9.72-5.95 13.25-10.43l.62-.79-6.99-5.29-.61.7c-6.28 7.29-14.2 10.99-23.52 10.99-8.49 0-15.61-2.74-21.17-8.15-5.55-5.4-8.36-12.24-8.36-20.32 0-5.36 1.26-10.24 3.74-14.52 2.48-4.27 6.03-7.73 10.55-10.27 4.53-2.54 9.51-3.83 14.82-3.83 4.87 0 9.39.98 13.45 2.92 4.05 1.94 7.57 4.82 10.47 8.59l.6.78 7-5.35-.56-.78c-3.4-4.7-7.82-8.4-13.14-11.01C195.52 1.32 189.54 0 182.98 0c-10.89 0-20.09 3.57-27.33 10.61-7.26 7.05-10.94 15.85-10.94 26.17 0 9.79 3.04 18.26 9.02 25.19 7.14 8.21 17.02 12.38 29.34 12.38Z"/><circle class="st1" cx="183.03" cy="36.86" r="7.7"/><text x="1" y="106" font-family="Arial,sans-serif" font-size="24" fill="#6d6e71" letter-spacing="1">MEDIA GROUP</text></svg>